HIERARCHY
ROOT SimulationBone
{
	OFFSET 0.000000 0.000000 0.000000
	CHANNELS 6 Xposition Yposition Zposition Zrotation Yrotation Xrotation 
	JOINT Hips
	{
		OFFSET 0.000000 0.000000 0.000000
		CHANNELS 6 Xposition Yposition Zposition Zrotation Yrotation Xrotation 
		JOINT LeftUpLeg
		{
			OFFSET 0.103462 1.857825 10.548491
			CHANNELS 3 Zrotation Yrotation Xrotation
			JOINT LeftLeg
			{
				OFFSET 43.500000 -0.000038 -0.000006
				CHANNELS 3 Zrotation Yrotation Xrotation
				JOINT LeftFoot
				{
					OFFSET 42.372196 0.000034 -0.000012
					CHANNELS 3 Zrotation Yrotation Xrotation
					JOINT LeftToe
					{
						OFFSET 17.299999 -0.000001 -0.000008
						CHANNELS 3 Zrotation Yrotation Xrotation
						End Site
						{
							OFFSET 0.000000 0.000000 0.000000
						}
					}
				}
			}
		}
		JOINT RightUpLeg
		{
			OFFSET 0.103456 1.857821 -10.548490
			CHANNELS 3 Zrotation Yrotation Xrotation
			JOINT RightLeg
			{
				OFFSET 43.500038 -0.000011 0.000011
				CHANNELS 3 Zrotation Yrotation Xrotation
				JOINT RightFoot
				{
					OFFSET 42.372265 0.000004 0.000029
					CHANNELS 3 Zrotation Yrotation Xrotation
					JOINT RightToe
					{
						OFFSET 17.299988 -0.000007 0.000004
						CHANNELS 3 Zrotation Yrotation Xrotation
						End Site
						{
							OFFSET 0.000000 0.000000 0.000000
						}
					}
				}
			}
		}
		JOINT Spine
		{
			OFFSET 6.901963 -2.603729 -0.000012
			CHANNELS 3 Zrotation Yrotation Xrotation
			JOINT Spine1
			{
				OFFSET 12.588106 0.000010 0.000003
				CHANNELS 3 Zrotation Yrotation Xrotation
				JOINT Spine2
				{
					OFFSET 12.343199 -0.000001 -0.000002
					CHANNELS 3 Zrotation Yrotation Xrotation
					JOINT Neck
					{
						OFFSET 25.832895 -0.000006 0.000023
						CHANNELS 3 Zrotation Yrotation Xrotation
						JOINT Head
						{
							OFFSET 11.766605 0.000011 -0.000027
							CHANNELS 3 Zrotation Yrotation Xrotation
							End Site
							{
								OFFSET 0.000000 0.000000 0.000000
							}
						}
					}
					JOINT LeftShoulder
					{
						OFFSET 19.745903 -1.480368 6.000127
						CHANNELS 3 Zrotation Yrotation Xrotation
						JOINT LeftArm
						{
							OFFSET 11.284108 0.000010 -0.000010
							CHANNELS 3 Zrotation Yrotation Xrotation
							JOINT LeftForeArm
							{
								OFFSET 33.000069 0.000000 0.000030
								CHANNELS 3 Zrotation Yrotation Xrotation
								JOINT LeftHand
								{
									OFFSET 25.199997 0.000019 0.000001
									CHANNELS 3 Zrotation Yrotation Xrotation
									End Site
									{
										OFFSET 0.000000 0.000000 0.000000
									}
								}
							}
						}
					}
					JOINT RightShoulder
					{
						OFFSET 19.746101 -1.480371 -6.000072
						CHANNELS 3 Zrotation Yrotation Xrotation
						JOINT RightArm
						{
							OFFSET 11.284140 -0.000007 -0.000004
							CHANNELS 3 Zrotation Yrotation Xrotation
							JOINT RightForeArm
							{
								OFFSET 33.000080 0.000016 -0.000002
								CHANNELS 3 Zrotation Yrotation Xrotation
								JOINT RightHand
								{
									OFFSET 25.199766 0.000146 0.000422
									CHANNELS 3 Zrotation Yrotation Xrotation
									End Site
									{
										OFFSET 0.000000 0.000000 0.000000
									}
								}
							}
						}
					}
				}
			}
		}
	}
}
MOTION
Frames: 9
Frame Time: 0.016667
263.575192 0.000000 20.044731 0.000000 -8.317979 0.000000 4.786767 79.147499 -0.608245 106.213282 -3.159980 170.041805 151.675059 -0.773806 167.087027 -54.809921 -1.817263 7.799418 73.009530 -3.358352 6.633416 21.454558 0.003095 0.000001 178.932132 4.998394 -171.274889 -85.325242 -5.261656 10.263991 60.175099 -5.289103 4.833916 21.454562 -0.003105 -0.000020 10.137344 -1.878736 1.338556 10.225248 -3.868376 2.507057 9.906708 -3.853035 2.530394 10.098726 -14.786311 -5.266571 -20.866848 15.626050 -13.158917 -158.187276 -72.167099 -23.851307 -5.627862 54.112175 16.505139 -93.928132 -4.071939 2.764338 9.052280 3.334709 58.159688 -172.638412 75.553493 8.972579 -11.873752 -61.280612 -25.057117 -30.986808 13.695380 -1.191562 11.793510 6.081986 -18.961766 
264.346009 0.000000 20.171667 0.000000 -10.606847 0.000000 4.586993 80.377198 -0.766394 105.615851 -3.488352 172.884088 153.248957 -0.597716 167.107413 -52.066585 -1.566717 8.122204 72.333444 -3.545306 6.707738 21.454552 0.003098 0.000000 178.691798 5.608010 -168.413403 -83.324157 -5.216744 11.580757 58.291296 -5.475215 6.523471 21.454542 -0.003115 -0.000018 10.019306 -1.770484 1.208239 9.994831 -3.638675 2.260001 9.676328 -3.624829 2.281953 10.181825 -14.796191 -6.443845 -20.908877 16.526674 -14.754279 -158.555509 -72.792156 -23.462173 -8.071905 53.714638 16.676032 -94.177083 -4.190053 2.783996 9.518757 3.481570 63.582378 -171.040340 75.210744 10.605912 -9.605737 -60.817526 -26.400416 -28.114097 13.100275 -1.093354 12.496369 4.196804 -22.389018 
265.082217 0.000000 20.267935 0.000000 -12.858861 0.000000 4.361854 81.600731 -0.858301 104.996107 -3.767148 175.448153 154.917365 -0.681700 167.217893 -49.083914 -1.794346 8.422826 71.502169 -3.663129 6.837034 21.454551 0.003097 0.000000 178.614788 6.196396 -165.575643 -80.925890 -5.151338 12.946743 56.943013 -6.178800 7.112795 21.454543 -0.003116 -0.000017 9.879551 -1.678056 1.096128 9.719795 -3.442210 2.048233 9.401312 -3.429645 2.069001 10.154195 -14.879902 -7.648980 -20.736652 17.417771 -16.353513 -158.321134 -73.364615 -23.692794 -10.621035 53.132197 17.046235 -94.600995 -4.294171 2.809830 9.997065 3.693904 68.321459 -169.306496 75.107516 12.380011 -6.581297 -60.419749 -28.791364 -26.716521 12.980319 -1.066641 12.642421 2.558588 -25.335415 
265.782851 0.000000 20.336478 0.000000 -15.085874 0.000000 4.125453 82.795782 -0.898863 104.312229 -3.978567 177.797351 156.574382 -0.952598 167.305877 -45.954438 -2.273620 8.691300 70.565334 -3.744024 6.980748 21.454552 0.003094 -0.000000 178.668934 6.759401 -162.759852 -78.281496 -5.041209 14.272654 56.218050 -7.138398 7.147962 21.454553 -0.003113 -0.000016 9.710516 -1.593341 0.994193 9.385501 -3.262022 1.856562 9.067032 -3.250615 1.876245 10.037099 -14.967163 -8.794984 -20.501117 18.327961 -17.890975 -157.739206 -73.880321 -24.280217 -13.079779 52.432834 17.562368 -95.113202 -4.367230 2.837591 10.485863 3.930109 72.022345 -167.426700 75.050476 14.303921 -3.242139 -59.855777 -31.756327 -26.410612 13.102231 -1.069814 12.481982 1.305886 -27.484221 
266.446947 0.000000 20.380240 0.000000 -17.298407 0.000000 3.889357 83.940033 -0.904348 103.526057 -4.096986 179.994092 158.114822 -1.330902 167.263779 -42.768878 -2.778086 8.940530 69.572552 -3.821549 7.098948 21.454553 0.003091 0.000000 178.822248 7.296099 -159.965066 -75.541522 -4.846848 15.471999 56.204243 -8.056729 7.154229 21.454563 -0.003108 -0.000017 9.504580 -1.508285 0.894348 8.977074 -3.081354 1.669578 8.658623 -3.071079 1.688173 9.848632 -14.986446 -9.794108 -20.353808 19.277319 -19.305349 -157.108296 -74.335417 -24.918005 -15.262708 51.679580 18.155875 -95.626950 -4.392306 2.862362 10.972189 4.155510 74.319998 -165.480197 74.847374 16.297302 -0.081388 -58.932742 -34.769733 -26.818887 13.229843 -1.084392 12.250665 0.614431 -28.532920 
267.073540 0.000000 20.402164 0.000000 -19.505834 0.000000 3.661287 85.013795 -0.890259 102.632074 -4.108817 -177.939408 159.477318 -1.727167 167.027253 -39.596404 -3.127461 9.171533 68.570201 -3.913080 7.139068 21.454552 0.003091 0.000000 179.042599 7.803747 -157.213035 -72.833109 -4.548291 16.507633 56.825204 -8.720548 7.510661 21.454563 -0.003106 -0.000019 9.261337 -1.419924 0.794892 8.493774 -2.894302 1.483922 8.175351 -2.885153 1.501391 9.607845 -14.875427 -10.602234 -20.410855 20.237324 -20.561012 -156.734147 -74.748415 -25.292948 -17.014489 50.947303 18.753553 -96.066318 -4.361200 2.879864 11.366374 4.337773 74.985724 -163.637185 74.399342 18.188109 2.509376 -57.585341 -37.424448 -27.627809 13.201018 -1.097273 12.130332 0.535282 -28.282034 
267.661664 0.000000 20.405194 0.000000 -21.716531 0.000000 3.441728 86.007889 -0.865049 101.735865 -4.080335 -176.136885 160.768883 -2.031695 166.685617 -36.424377 -3.313396 9.249724 67.592364 -3.967308 6.993954 21.454551 0.003091 -0.000000 179.294679 8.263302 -154.614760 -70.194516 -4.261286 17.521889 57.396134 -9.288543 8.035953 21.454560 -0.003107 -0.000019 9.009463 -1.345270 0.719999 7.992274 -2.736987 1.345833 7.673880 -2.728676 1.362353 9.345644 -14.613921 -11.350098 -20.642409 21.011200 -21.707057 -156.819447 -75.215685 -25.196421 -18.270593 50.378737 19.305418 -96.398912 -4.300057 2.890260 11.300787 4.424076 74.358431 -162.048013 73.972400 19.820995 4.638586 -56.079157 -39.880415 -28.778024 13.151499 -1.114048 12.066894 0.538359 -26.910931 
268.210355 0.000000 20.392273 0.000000 -23.937993 0.000000 3.231534 86.918008 -0.835393 100.935271 -4.090481 -174.729461 162.113123 -2.164702 166.371147 -33.223424 -3.373592 9.029125 66.659960 -3.921269 6.575166 21.454549 0.003089 0.000000 179.543557 8.662688 -152.276395 -67.648466 -4.122272 18.628463 57.288264 -9.926370 8.490904 21.454558 -0.003112 -0.000016 8.778367 -1.299237 0.691228 7.530942 -2.640627 1.296913 7.212569 -2.632614 1.312847 9.078595 -14.211561 -12.166664 -20.956812 21.417026 -22.781549 -157.486969 -75.792514 -24.502956 -19.011697 50.068820 19.784479 -96.620577 -4.234344 2.895420 10.567516 4.380301 72.780504 -160.730071 73.837851 21.173713 6.483907 -54.675468 -42.322979 -30.227346 13.238103 -1.146319 11.957128 0.108259 -24.764788 
268.718649 0.000000 20.366346 0.000000 -26.176914 0.000000 3.041222 87.748833 -0.810044 100.233268 -4.125308 -173.684689 163.541858 -2.174699 166.226888 -29.977026 -3.410686 8.468644 65.752734 -3.723381 5.930082 21.454550 0.003088 0.000000 179.771194 9.023194 -150.190176 -65.235771 -4.159567 19.688333 56.695173 -10.510404 8.929877 21.454558 -0.003115 -0.000013 8.570912 -1.269491 0.692938 7.116071 -2.579096 1.307001 6.797715 -2.571024 1.322559 8.757430 -13.753609 -13.000080 -21.186618 21.492526 -23.717099 -158.555080 -76.300393 -23.402839 -19.311937 49.854055 20.243346 -96.796395 -4.152630 2.897618 9.846298 4.366307 70.033460 -159.684590 73.917697 22.244210 7.870629 -53.387622 -44.338114 -31.741476 13.405800 -1.188211 11.789557 -0.625052 -22.484662 
